<svg width="32" height="32" viewBox="0 0 32 32" fill="none" xmlns="http://www.w3.org/2000/svg">
  <!-- Background Circle with Gradient -->
  <defs>
    <linearGradient id="bgGradient" x1="0%" y1="0%" x2="100%" y2="100%">
      <stop offset="0%" style="stop-color:#6366f1;stop-opacity:1" />
      <stop offset="50%" style="stop-color:#8b5cf6;stop-opacity:1" />
      <stop offset="100%" style="stop-color:#a855f7;stop-opacity:1" />
    </linearGradient>
    <linearGradient id="textGradient" x1="0%" y1="0%" x2="100%" y2="100%">
      <stop offset="0%" style="stop-color:#ffffff;stop-opacity:1" />
      <stop offset="100%" style="stop-color:#e0e7ff;stop-opacity:1" />
    </linearGradient>
    <linearGradient id="accentGradient" x1="0%" y1="0%" x2="100%" y2="100%">
      <stop offset="0%" style="stop-color:#06b6d4;stop-opacity:1" />
      <stop offset="100%" style="stop-color:#3b82f6;stop-opacity:1" />
    </linearGradient>
  </defs>
  
  <!-- Main Background -->
  <circle cx="16" cy="16" r="15" fill="url(#bgGradient)" stroke="#4f46e5" stroke-width="2"/>
  
  <!-- Neural Network Dots -->
  <circle cx="8" cy="10" r="1.5" fill="url(#accentGradient)" opacity="0.8"/>
  <circle cx="24" cy="12" r="1.5" fill="url(#accentGradient)" opacity="0.8"/>
  <circle cx="12" cy="22" r="1.5" fill="url(#accentGradient)" opacity="0.8"/>
  <circle cx="22" cy="24" r="1.5" fill="url(#accentGradient)" opacity="0.8"/>
  
  <!-- Connection Lines -->
  <line x1="8" y1="10" x2="16" y2="16" stroke="url(#accentGradient)" stroke-width="1" opacity="0.6"/>
  <line x1="24" y1="12" x2="16" y2="16" stroke="url(#accentGradient)" stroke-width="1" opacity="0.6"/>
  <line x1="12" y1="22" x2="16" y2="16" stroke="url(#accentGradient)" stroke-width="1" opacity="0.6"/>
  <line x1="22" y1="24" x2="16" y2="16" stroke="url(#accentGradient)" stroke-width="1" opacity="0.6"/>
  
  <!-- Central AI Brain/Quiz Symbol -->
  <circle cx="16" cy="16" r="6" fill="none" stroke="url(#textGradient)" stroke-width="2" opacity="0.9"/>
  
  <!-- Question Mark Symbol -->
  <path d="M14 12c0-1.1.9-2 2-2s2 .9 2 2c0 .8-.4 1.3-1 1.7-.6.4-1 .8-1 1.3v.5" 
        stroke="url(#textGradient)" stroke-width="2" stroke-linecap="round" fill="none"/>
  <circle cx="16" cy="20" r="1" fill="url(#textGradient)"/>
  
  <!-- Subtle Glow Effect -->
  <circle cx="16" cy="16" r="14" fill="none" stroke="url(#accentGradient)" stroke-width="0.5" opacity="0.3"/>
</svg>